<?xml version="1.0" encoding="UTF-8"?>
<!DOCTYPE svg PUBLIC "-//W3C//DTD SVG 1.1//EN" "http://www.w3.org/Graphics/SVG/1.1/DTD/svg11.dtd">
<svg version="1.1" xmlns="http://www.w3.org/2000/svg" xmlns:xlink="http://www.w3.org/1999/xlink" x="0" y="0" width="769" height="1030" viewBox="0, 0, 769, 1030">
  <defs>
    <clipPath id="Clip_1">
      <path d="M-0,1030 L768.71,1030 L768.71,0.54 L-0,0.54 z"/>
    </clipPath>
  </defs>
  <g id="Layer_1">
    <g clip-path="url(#Clip_1)">
      <path d="M589.324,1017.68 C589.007,1019.44 588.895,1021.27 588.333,1022.95 C586.9,1027.24 584.331,1030.16 579.274,1029.88 C576.006,1029.7 572.719,1029.85 569.454,1029.65 C564.234,1029.32 560.908,1025.82 559.986,1019.92 C560.415,1019.38 560.955,1018.92 561.628,1018.87 C565.572,1018.58 565.583,1016.74 564.294,1013.53 C559.947,1002.7 560.055,1002.65 548.619,1005.34 C545.699,1006.02 542.763,1006.63 539.81,1007.14 C531.724,1008.55 527.545,1004.48 529.011,996.461 C530.928,985.977 532.918,975.507 534.894,965.035 C537.797,949.653 540.718,934.275 543.525,918.876 C544.451,913.794 546.96,910.418 552.01,908.858 C558.692,906.795 565.357,904.672 572.039,902.615 C578.907,900.5 583.651,904.729 582.674,911.83 C581.653,919.256 580.068,926.588 578.878,933.987 C578.698,935.109 578.225,936.257 579.003,937.639 C581.551,937.143 582.209,935.073 582.59,932.999 C585.202,918.75 588.015,904.538 590.443,890.256 C591.124,886.254 590.6,885.989 585.922,887.913 C553.576,901.214 521.016,913.982 488.573,927.041 C477.76,931.394 467.005,935.892 456.185,940.231 C451.172,942.242 446.31,942.587 441.099,940.993 C405.594,930.129 370.092,919.25 334.575,908.421 C315.463,902.593 296.372,896.695 277.253,890.89 C273.374,889.712 272.282,890.817 271.893,894.555 C270.535,907.623 269.541,920.723 268.258,933.797 C267.706,939.423 267.218,945.057 266.595,950.677 C266.042,955.668 265.886,960.643 266.908,965.591 C268.228,971.977 268.83,978.416 268.272,984.923 C268.052,987.486 268.36,989.17 271.624,988.728 C273.961,988.413 276.259,989.204 278.473,989.916 C297.02,995.881 315.655,1001.57 334.147,1007.7 C335.728,1008.23 337.319,1008.77 338.639,1009.83 C342.21,1012.71 342.266,1016.56 338.808,1019.86 C334.821,1022.2 330.84,1021.36 326.859,1019.84 C306.297,1015.29 286.694,1007.63 266.267,1001.47 C264.284,1007.58 262.607,1014.17 259.044,1019.98 C256.856,1028.48 254.33,1030.44 246.329,1029.86 C240.144,1029.41 239.097,1024.4 237.476,1019.9 C236.593,1019.13 235.033,1018.89 235.347,1017.17 C235.654,1013.76 237.385,1010.89 238.87,1007.92 C244.61,996.418 246.769,984.375 244.253,971.64 C243.276,966.697 240.854,962.669 236.823,959.62 C231.716,955.757 228.709,956.304 225.482,961.758 C222.747,966.38 220.885,971.391 219.689,976.582 C216.997,988.266 215.1,1000.073 215.184,1012.12 C215.202,1014.76 215.525,1017.48 213.886,1019.86 C212.356,1028.62 208.979,1030.85 198.914,1029.72 C191.449,1028.89 187.938,1024.77 188.835,1016.67 C191.38,993.678 194.929,970.827 198.603,947.992 C206.031,901.829 215.006,855.988 226.929,810.761 C234.176,783.274 242.546,756.143 253.846,729.997 C254.095,729.422 254.243,728.804 254.512,727.982 C242.757,725.944 231.12,724.056 219.536,721.887 C203.176,718.823 187.122,714.556 171.208,709.645 C135.45,698.61 111.504,674.655 95.931,641.471 C85.151,618.499 79.834,594.051 76.807,569 C73.742,543.644 73.541,518.185 73.93,492.709 C73.982,489.268 73.339,487.915 69.524,487.54 C61.427,486.743 53.449,485.058 45.787,482.079 C26.521,474.587 16.854,460.097 14.868,439.968 C12.824,419.261 18.996,401.9 36.247,388.847 C32.726,386.334 29.275,384.19 26.184,381.613 C11.913,369.713 4.817,353.876 1.866,335.968 C-2.965,306.65 2.12,278.273 10.968,250.445 C22.22,215.057 38.699,182.416 64.059,154.854 C75.684,142.22 88.858,131.656 106.125,127.562 C106.609,127.447 107.114,127.108 107.559,127.181 C117.116,128.745 119.726,122.164 123.004,115.119 C138.195,82.47 158.781,54.015 188.864,33.291 C214.131,15.884 242.343,6.805 272.703,4.136 C304.06,1.38 335.508,0.372 366.973,0.562 C411.936,0.835 456.886,2.523 501.499,8.207 C554.645,14.978 595.588,41.946 624.998,86.599 C632.515,98.013 639.006,109.997 644.44,122.526 C645.712,125.46 647.03,126.728 650.538,126.601 C670.597,125.874 685.786,136.231 699.25,149.416 C727.118,176.708 744.315,210.468 756.679,246.925 C764.801,270.873 769.729,295.471 768.532,320.901 C767.514,342.518 762.163,362.642 746.077,378.491 C742.135,382.374 737.663,385.518 732.871,388.261 C732.967,390.159 734.681,390.558 735.746,391.412 C762.56,412.928 757.835,457.646 737.787,473.564 C727.782,481.509 716.182,485.088 703.876,486.917 C693.813,488.412 694.15,488.27 694.466,498.18 C695.77,539.037 695.505,579.789 683.786,619.505 C673.687,653.731 655.624,682.432 625.954,703.197 C608.912,715.124 589.426,720.454 569.538,724.742 C554.733,727.935 539.747,730.148 524.692,731.751 C521.082,732.136 520.26,732.798 521.484,736.469 C530.635,763.912 538.477,791.741 545.16,819.883 C549.23,837.023 553.055,854.223 556.717,871.454 C557.495,875.113 558.461,875.502 561.816,874.089 C574.678,868.672 587.703,863.643 600.617,858.345 C605.069,856.519 609.332,855.922 613.274,859.225 C617.239,862.547 617.178,866.87 616.285,871.563 C612.429,891.82 608.719,912.106 605.017,932.392 C604.781,933.687 604.035,935.178 606.22,936.075 C620.217,941.818 626.618,953.722 630.201,967.287 C635.285,986.536 634.82,1005.5 624.746,1023.38 C622.758,1026.91 620.467,1029.81 615.61,1029.99 C609.937,1030.2 606.368,1028.11 604.553,1022.83 C603.417,1018.41 604.819,1014.7 606.656,1010.56 C613.833,994.369 613.235,978.148 604.413,962.673 C600.278,955.42 595.325,955.055 588.83,960.368 C583.155,965.01 581.594,971.361 581.219,978.146 C580.598,989.361 582.982,999.931 588.363,1009.85 C589.637,1012.2 592.193,1014.7 589.324,1017.68" fill="#6E4100"/>
    </g>
    <path d="M338.808,1019.86 C341.498,1013.93 340.448,1011.1 334.549,1009.21 C315.231,1003.02 295.877,996.945 276.557,990.762 C273.27,989.71 270.116,988.968 266.704,991.53 C269.676,978.197 263.621,965.636 264.923,952.631 C266.979,932.099 268.957,911.559 270.695,890.999 C271.061,886.678 273.133,888.185 275.276,888.839 C296.428,895.292 317.58,901.747 338.729,908.212 C373.39,918.808 408.058,929.378 442.693,940.059 C446.756,941.312 450.416,941.017 454.314,939.441 C498.418,921.617 542.557,903.878 586.69,886.125 C588.53,885.385 590.407,884.735 593.04,883.756 C591.502,892.412 590.096,900.526 588.613,908.625 C587.115,916.804 585.538,924.968 583.999,933.14 C583.012,938.377 582.893,938.508 576.291,940.885 C577.657,932.886 578.957,925.235 580.272,917.587 C580.667,915.293 581.195,913.017 581.5,910.712 C582.176,905.611 578.569,902.241 573.624,903.66 C565.796,905.905 558.08,908.541 550.279,910.886 C546.59,911.995 545.689,914.932 545.094,918.111 C541.638,936.582 538.227,955.061 534.779,973.534 C533.285,981.541 531.751,989.541 530.219,997.541 C528.984,1003.99 532.018,1007.13 538.579,1005.9 C544.625,1004.77 550.679,1003.6 556.622,1002.03 C560.535,1001 562.236,1001.97 562.991,1006.02 C563.56,1009.07 565.043,1011.98 566.329,1014.86 C568.718,1020.21 568.707,1020.31 562.946,1020.22 C561.958,1020.21 560.973,1020.02 559.986,1019.92 C541.506,1019.96 523.023,1020.47 504.547,1019.65 C502.94,1017.48 503.821,1015.16 504.216,1012.91 C508.2,990.303 512.603,967.767 516.619,945.162 C516.91,943.526 517.299,941.89 517.129,940.212 C516.906,938.011 515.835,936.403 513.577,935.962 C511.242,935.505 509.775,936.794 508.869,938.784 C508.105,940.463 507.861,942.299 507.519,944.094 C503.243,966.483 499.071,988.891 494.981,1011.31 C494.432,1014.32 494.703,1017.75 491.76,1019.91 C491.029,1019.83 490.297,1019.75 489.566,1019.68 C487.937,1017.56 488.646,1015.23 489.02,1012.96 C492.236,993.455 495.492,973.953 498.743,954.45 C499.071,952.481 499.445,950.514 499.208,948.508 C498.956,946.378 498.131,944.544 495.792,944.176 C493.474,943.811 492.048,945.304 491.124,947.186 C489.938,949.604 489.686,952.29 489.251,954.908 C485.983,974.577 482.716,994.246 479.381,1013.9 C479,1016.14 479.054,1018.64 476.61,1019.97 C475.369,1019.95 474.128,1019.94 472.887,1019.92 C471.004,1018.06 471.92,1015.86 472.256,1013.8 C474.936,997.399 477.818,981.033 480.686,964.664 C481.145,962.046 481.825,959.44 481.693,956.769 C481.575,954.39 480.356,952.585 477.922,952.128 C475.579,951.688 474.249,953.251 473.295,955.139 C472.534,956.646 472.358,958.315 472.076,959.953 C469.062,977.476 465.901,994.975 462.935,1012.51 C462.488,1015.15 462.839,1018.33 459.744,1019.91 C458.782,1019.91 457.819,1019.91 456.856,1019.91 C454.866,1017.89 455.813,1015.52 456.173,1013.29 C458.51,998.813 460.917,984.351 463.492,969.916 C464.574,963.857 463.446,960.83 460.234,960.25 C457.148,959.693 455.442,962.145 454.274,968.573 C451.503,983.818 449.096,999.126 446.451,1014.39 C446.095,1016.45 446.263,1018.86 443.764,1019.91 C431.089,1019.88 418.413,1019.85 405.738,1019.81 C406.399,1011.81 406.108,1011.09 399.131,1008.91 C359.25,996.502 319.419,983.931 279.504,971.627 C278.074,971.186 276.656,970.663 275.151,970.549 C272.767,970.369 270.799,971.116 269.982,973.525 C269.148,975.988 270.368,977.718 272.451,978.893 C274.347,979.962 276.466,980.483 278.535,981.116 C308.131,990.177 337.625,999.566 367.181,1008.76 C375.602,1011.38 384.028,1013.98 392.428,1016.67 C394.192,1017.23 396.535,1017.19 396.853,1019.85 C377.505,1019.85 358.156,1019.86 338.808,1019.86" fill="#BEBEBE"/>
    <path d="M396.853,1019.85 C384.784,1015.16 372.273,1011.83 359.949,1007.93 C331.592,998.953 303.17,990.178 274.785,981.289 C273.215,980.798 271.495,980.303 270.273,979.291 C268.029,977.433 267.293,974.96 268.786,972.161 C270.485,968.976 273.236,968.259 276.414,969.21 C284.69,971.687 292.925,974.303 301.172,976.877 C334.488,987.274 367.806,997.667 401.115,1008.08 C408.237,1010.31 409.528,1013.67 405.738,1019.81 C402.778,1020.19 399.823,1021.91 396.853,1019.85" fill="#6E4100"/>
    <path d="M589.324,1017.68 C589.444,1014.75 588.284,1012.29 586.896,1009.75 C580.313,997.677 578.161,984.826 580.747,971.262 C581.822,965.622 584.67,961.148 589.482,957.891 C596.131,953.392 600.34,954.046 605.036,960.686 C609.777,967.391 611.62,975.156 612.42,983.128 C613.518,994.076 612.323,1004.68 606.181,1014.23 C604.466,1016.89 604.203,1019.79 604.553,1022.83 C603.752,1019.75 602.044,1018.5 598.616,1018.73 C595.558,1018.94 592.424,1018.07 589.324,1017.68" fill="#FEF8EA"/>
    <path d="M213.886,1019.86 C213.188,1002.64 215.089,985.755 220.502,969.336 C220.916,968.078 221.265,966.767 221.897,965.618 C224.159,961.504 225.423,955.152 230.835,955.417 C236.94,955.716 241.535,960.373 244.013,966.259 C247.773,975.195 247.291,984.445 245.442,993.673 C244.233,999.7 242.256,1005.47 238.964,1010.78 C237.633,1012.93 237.027,1015.53 236.091,1017.92 C235.041,1019.33 233.691,1019.21 232.093,1019.03 C228.315,1018.6 224.53,1018.79 220.837,1019.86 C218.519,1020.56 216.204,1018.18 213.886,1019.86" fill="#FEF8EA"/>
    <path d="M491.76,1019.91 C495.435,1000.486 499.114,981.06 502.785,961.632 C504.112,954.608 505.408,947.577 506.748,940.555 C507.656,935.795 510.293,933.455 513.932,934.105 C517.621,934.764 519.452,937.906 518.585,942.637 C514.214,966.511 509.768,990.371 505.363,1014.24 C505.032,1016.03 504.817,1017.85 504.547,1019.65 C503.382,1022.18 502.232,1024.6 498.876,1024.89 C495.018,1025.22 493.422,1022.58 491.76,1019.91" fill="#6E4100"/>
    <path d="M476.61,1019.97 C479.343,1004.41 482.1,988.863 484.798,973.302 C486.219,965.111 487.554,956.905 488.893,948.7 C489.53,944.801 491.388,942.051 495.67,942.159 C499.418,942.254 501.569,945.352 500.79,950.246 C497.76,969.298 494.474,988.31 491.326,1007.34 C490.648,1011.44 490.148,1015.56 489.566,1019.68 C488.448,1020.53 488.974,1021.81 488.727,1022.89 C487.923,1026.4 485.912,1028.57 482.167,1028.26 C478.458,1027.95 476.6,1025.72 476.701,1021.94 C476.718,1021.28 476.643,1020.63 476.61,1019.97" fill="#6E4100"/>
    <path d="M459.744,1019.91 C462.677,1009.5 463.734,998.735 465.739,988.148 C467.686,977.863 469.242,967.505 471.058,957.194 C471.965,952.045 474.702,949.546 478.491,950.471 C483.029,951.579 483.745,954.787 483.007,958.975 C479.688,977.8 476.493,996.647 473.283,1015.49 C473.035,1016.95 473.014,1018.45 472.887,1019.92 C472.674,1020.36 472.333,1020.79 472.268,1021.25 C471.684,1025.35 470.203,1028.74 465.277,1028.23 C460.328,1027.73 459.824,1023.87 459.744,1019.91" fill="#6E4100"/>
    <path d="M443.764,1019.91 C446.914,1006.83 448.394,993.453 450.825,980.245 C451.788,975.017 452.789,969.792 453.571,964.536 C454.187,960.398 456.314,958.118 460.544,958.521 C464.291,958.878 466.209,962.296 465.433,966.84 C462.665,983.047 459.847,999.245 457.094,1015.45 C456.847,1016.91 456.928,1018.42 456.856,1019.91 C455.522,1022.9 454.452,1026.16 450.218,1026.01 C446.268,1025.87 444.559,1023.38 443.764,1019.91" fill="#6E4100"/>
    <g>
      <path d="M259.044,1019.98 C258.342,1016.18 261.185,1013.47 262.088,1010.15 C263.172,1006.18 264.535,1002.28 265.969,997.735 C268.185,1001.25 271.594,1001.87 274.819,1002.89 C291.294,1008.11 307.762,1013.35 324.224,1018.6 C325.141,1018.9 325.982,1019.42 326.859,1019.84 C318.497,1019.91 310.135,1019.95 301.773,1020.07 C300.026,1020.09 298.122,1019.54 296.629,1021.03 C290.018,1018.54 283.342,1016.23 276.664,1013.93 C267.986,1010.93 266.814,1011.44 264.641,1019.97 C262.775,1019.97 260.91,1019.98 259.044,1019.98" fill="#BEBEBE"/>
      <path d="M264.641,1019.97 C263.691,1017.13 263.529,1014.38 265.976,1012.16 C268.429,1009.93 271.179,1010.56 273.932,1011.53 C279.717,1013.59 285.469,1015.75 291.318,1017.6 C293.493,1018.29 295.132,1019.46 296.629,1021.03 C297.497,1028.79 294.383,1031.53 287.21,1028.86 C279.633,1026.05 271.508,1024.59 264.641,1019.97" fill="#6E4100"/>
    </g>
    <path d="M220.837,1019.86 C224.311,1017.83 228.119,1017.35 231.943,1018.12 C233.466,1018.42 234.725,1018.43 236.09,1017.92 C236.553,1018.58 237.015,1019.24 237.476,1019.9 C231.929,1019.89 226.383,1019.87 220.837,1019.86" fill="#E9E796"/>
    <path d="M97.024,430.86 C97.599,409.252 98.077,387.64 98.778,366.036 C99.387,347.26 100.14,328.486 101.973,309.776 C104.186,308.141 106.483,309.098 108.683,309.69 C142.467,318.777 176.191,328.081 209.969,337.19 C214.366,338.375 216.505,340.748 216.295,345.323 C216.189,347.649 216.283,349.987 216.296,352.32 C216.398,370.557 226.17,380.37 244.547,380.462 C263.874,380.559 283.201,380.484 302.528,380.485 C311.358,380.486 320.19,380.372 329.018,380.507 C347.317,380.787 357.374,369.414 357.425,355.069 C357.438,351.397 359.246,349.567 362.959,349.543 C377.121,349.454 391.282,349.49 405.443,349.523 C409.417,349.533 411.067,351.488 411.29,355.337 C411.654,361.606 413.183,367.444 417.696,372.251 C423.098,378.006 429.913,380.35 437.465,380.398 C466.954,380.589 496.446,380.716 525.933,380.375 C542.92,380.178 552.321,370.137 552.321,353.122 C552.321,336.308 551.83,339.23 566.108,335.248 C596.275,326.834 626.555,318.824 656.779,310.617 C658.686,310.1 660.641,309.324 662.471,310.876 C665.328,345.788 666.569,380.784 667.956,415.772 C668.095,417.735 666.95,417.087 666.231,416.478 C664.669,415.153 664.035,413.171 663.054,411.441 C652.095,392.112 634.058,383.617 613.016,388.381 C602.241,390.821 593.757,397.286 586.724,405.624 C578.627,415.224 573.758,426.443 573.336,438.896 C572.801,454.7 580.428,466.961 593.635,475.025 C606.21,482.703 620.196,485.443 634.952,482.655 C640.665,481.576 645.77,479.079 649.983,475.177 C656.327,469.302 662.786,463.472 666.678,455.462 C667.384,454.007 668.068,451.788 670.64,452.939 C673.094,484.814 674.999,516.722 673.549,548.696 C672.309,576.042 668.738,603.041 658.3,628.656 C642.028,668.588 613.829,694.232 570.783,703.036 C540.039,709.324 509.022,712.824 477.786,714.773 C449.872,716.515 421.908,717.249 393.946,716.678 C332.835,715.43 271.949,711.625 211.958,698.861 C199.602,696.232 187.5,692.671 175.467,688.816 C147.152,679.745 128.461,660.254 115.811,634.179 C104.472,610.806 99.533,585.747 96.971,560.149 C93.53,525.775 94.642,491.336 96.045,456.906 C96.92,454.71 95.777,452.286 96.878,449.814 C98.948,450.204 99.047,452.027 99.557,453.437 C104.95,468.331 115.209,478.272 130.113,483.472 C143.139,488.017 156.3,489.719 169.699,485.082 C195.059,476.305 209.553,445.24 200.041,420.332 C195.796,409.217 189.661,399.462 180.171,392.149 C161.56,377.808 136.005,380.65 119.216,395.88 C109.583,404.618 102.787,414.989 99.461,427.607 C99.115,428.92 99.112,430.743 97.024,430.86" fill="#FEF2DF"/>
    <path d="M102.957,297.842 C103.882,279.705 106.244,261.719 108.877,243.775 C114.2,207.495 122.032,171.82 135.949,137.744 C147.516,109.423 162.798,83.504 185.713,62.66 C208.761,41.696 236.004,29.854 266.702,26.061 C291.996,22.936 317.471,22.268 342.944,21.795 C385.433,21.006 427.824,22.838 470.173,26.102 C493.447,27.896 516.574,30.28 538.416,39.466 C569.299,52.455 592.474,74.147 609.989,102.327 C627.034,129.751 637.541,159.768 645.178,190.927 C653.877,226.417 658.674,262.497 661.502,298.875 C660.449,300.578 658.723,301.149 656.928,301.637 C624.31,310.514 591.685,319.367 559.057,328.207 C554.081,329.555 552.718,328.454 552.394,323.315 C552.237,320.822 552.421,318.317 552.255,315.823 C551.499,304.445 543.996,295.776 532.9,293.389 C529.791,292.72 526.664,292.402 523.482,292.403 C495.669,292.42 467.857,292.425 440.044,292.402 C435.332,292.398 430.636,292.806 426.331,294.676 C416.458,298.965 411.691,306.842 411.329,317.47 C411.142,322.963 411.408,328.464 411.218,333.956 C411.04,339.115 410.028,340.276 405.04,340.335 C391.219,340.499 377.394,340.501 363.573,340.334 C358.609,340.274 357.593,339.092 357.412,333.938 C357.249,329.278 357.375,324.612 357.359,319.949 C357.3,302.505 347.739,292.764 330.148,292.451 C320.324,292.277 310.496,292.415 300.67,292.414 C282.017,292.412 263.365,292.398 244.712,292.423 C239.331,292.43 233.986,293.012 229.221,295.659 C220.363,300.579 216.63,308.569 216.322,318.408 C215.965,329.791 215.939,329.931 205.049,326.984 C172.9,318.285 140.759,309.56 108.656,300.692 C106.569,300.116 104.426,299.654 102.957,297.842" fill="#FEF2DF"/>
    <path d="M397.947,796.251 C401.537,800.973 404.123,804.605 406.944,808.045 C420.493,824.566 438.563,823.683 450.403,805.944 C451.879,803.732 453.347,801.474 454.478,799.077 C462.363,782.354 466.66,764.611 468.72,746.341 C469.867,736.169 469.524,736.185 479.617,735.768 C484.935,735.548 490.263,735.275 495.549,734.686 C498.527,734.354 499.622,735.589 500.488,738.178 C511.154,770.059 520.062,802.433 527.738,835.147 C531.155,849.708 534.101,864.378 537.477,878.949 C538.281,882.42 537.358,883.94 534.078,885.243 C506.252,896.3 478.494,907.526 450.722,918.72 C448.669,919.547 446.796,919.815 444.508,919.093 C430.238,914.594 415.906,910.294 401.586,905.954 C399.616,905.356 397.898,904.889 397.903,902.137 C397.969,867.348 397.947,832.558 397.947,796.251" fill="#D0CF00"/>
    <path d="M245.557,938.663 C238.367,935.12 231.264,933.825 223.546,935.404 C220.262,936.076 221.937,932.829 222.169,931.518 C224.638,917.611 227.105,903.699 229.896,889.854 C238.674,846.314 248.606,803.063 263.724,761.193 C266.941,752.284 270.872,743.635 274.209,734.766 C275.524,731.272 277.623,730.434 281.052,730.916 C286.647,731.702 292.272,732.421 297.908,732.715 C301.068,732.88 301.153,735.074 301.705,737.02 C306.065,752.383 310.645,767.671 316.833,782.422 C320.64,791.497 324.997,800.255 331.141,808.05 C344.269,824.704 360.673,825.514 375.102,810.092 C375.654,809.503 375.879,808.608 376.189,807.988 C378.273,809.41 377.658,810.688 377.66,811.725 C377.7,838.879 377.604,866.033 377.776,893.186 C377.805,897.801 376.628,898.388 372.363,897.064 C337.755,886.32 303.073,875.814 268.427,865.194 C257.752,861.921 252.827,864.816 251.673,875.826 C249.594,895.667 247.823,915.539 245.92,935.398 C245.829,936.348 245.71,937.295 245.557,938.663" fill="#D0CF00"/>
    <path d="M102.957,297.842 C127.643,304.512 152.33,311.178 177.015,317.853 C188.077,320.844 199.186,323.679 210.168,326.941 C214.538,328.239 215.229,326.711 214.965,322.885 C214.525,316.518 214.899,310.171 218.139,304.461 C223.288,295.386 231.441,291.121 241.651,291.079 C271.797,290.954 301.945,290.932 332.092,291.075 C348.208,291.152 358.797,302.158 358.819,318.334 C358.827,323.997 358.933,329.663 358.774,335.322 C358.696,338.124 359.654,339.096 362.491,339.075 C376.98,338.968 391.472,338.954 405.961,339.084 C409.036,339.111 410.048,338.087 409.947,335.056 C409.76,329.399 409.882,323.731 409.897,318.069 C409.94,302.487 420.404,291.245 435.896,291.113 C466.54,290.852 497.191,290.83 527.835,291.123 C543.436,291.272 553.751,302.437 553.796,318.106 C553.824,328.123 553.834,328.16 563.438,325.552 C596.13,316.675 628.815,307.77 661.502,298.875 C661.826,302.876 662.148,306.878 662.471,310.877 C650.273,314.071 638.053,317.188 625.881,320.477 C603.44,326.542 581.059,332.835 558.57,338.71 C554.653,339.734 553.537,341.364 553.717,345.145 C553.953,350.12 554.214,355.216 553.427,360.094 C551.33,373.107 541.08,381.723 527.497,381.802 C497.023,381.98 466.546,382.012 436.073,381.793 C420.788,381.683 410.124,370.781 409.994,355.508 C409.961,351.705 408.814,350.734 405.147,350.785 C391.161,350.98 377.169,350.977 363.184,350.786 C359.586,350.737 358.778,351.979 358.742,355.367 C358.572,371.001 347.967,381.722 332.289,381.809 C301.982,381.978 271.672,381.979 241.365,381.809 C225.719,381.721 214.965,370.454 214.921,354.725 C214.911,351.062 214.785,347.392 214.964,343.737 C215.09,341.166 214.243,339.781 211.671,339.087 C175.922,329.44 140.192,319.726 104.452,310.05 C103.659,309.835 102.8,309.865 101.973,309.778 C101.649,305.745 102.441,301.805 102.957,297.842" fill="#98C6E0"/>
    <path d="M97.024,430.86 C99.695,421.763 102.876,412.908 108.701,405.237 C119.641,390.831 133.865,381.422 152.094,381.3 C170.052,381.181 184.253,389.923 193.893,405.238 C199.771,414.578 204.212,424.51 204.918,435.841 C205.585,446.536 202.083,455.875 196.089,464.327 C187.731,476.111 177.712,486.231 162.649,488.364 C137.925,491.867 106.102,481.835 97.349,450.899 C96.092,452.771 97.796,455.226 96.045,456.906 C96.371,448.224 96.698,439.542 97.024,430.86" fill="#F5CEB1"/>
    <path d="M670.64,452.939 C666.439,455.517 665.781,460.553 662.85,464.107 C651.963,477.309 639.485,486.926 621.132,484.917 C601.295,482.745 584.519,475.736 575.418,456.278 C569.839,444.351 571.439,432.534 576.02,421.014 C581.073,408.309 589.532,398.213 601.67,391.474 C621.633,380.39 647.762,385.061 661.977,407.036 C663.877,409.973 664.316,414.014 667.955,415.772 C668.85,428.161 669.745,440.55 670.64,452.939" fill="#F5CEB1"/>
    <path d="M673.902,223.877 C671.408,212.19 669.087,200.464 666.375,188.829 C663.134,174.93 659.168,161.221 654.353,147.283 C659.617,147.134 663.885,149.197 667.993,151.41 C677.027,156.277 684.589,163.019 691.325,170.688 C712.482,194.772 726.892,222.61 736.884,252.889 C737.465,256.079 735.667,255.27 734.167,254.382 C731.163,252.605 728.337,250.543 725.382,248.678 C709.99,238.963 693.86,230.815 676.43,225.391 C675.465,225.091 674.564,224.684 673.902,223.877" fill="#FEFEFE"/>
    <path d="M31.789,252.929 C43.097,219.854 58.651,189.254 83.744,164.273 C90.866,157.183 98.812,151.257 109.52,147.81 C101.128,173.122 95.14,198.347 90.717,223.942 C89.874,225.746 88.273,226.591 86.525,227.243 C68.518,233.97 51.583,242.736 35.805,253.742 C32.947,255.736 32.573,255.531 31.789,252.929" fill="#FEFEFE"/>
    <path d="M681.509,282.176 C680.19,271.157 678.872,260.138 677.554,249.119 C676.69,245.949 677.913,245.105 680.858,246.137 C687.142,248.338 693.169,251.117 699.046,254.233 C713.917,262.117 728.061,271.029 740.104,282.97 C742.487,285.333 744.562,287.831 745.814,290.96 C749.391,307.999 749.122,324.939 744.5,341.766 C742.15,341.729 741.666,339.621 740.87,338.163 C730.255,318.713 714.227,304.531 696.36,292.101 C691.47,288.699 686.202,285.869 681.509,282.176" fill="#FEFEFE"/>
    <path d="M86.754,248.012 C85.412,259.98 84.071,271.948 82.729,283.917 C81.95,286.153 79.989,287.108 78.161,288.28 C60.098,299.862 43.735,313.269 31.893,331.521 C30.351,333.899 29.099,336.432 27.652,338.855 C26.897,340.118 26.345,342.258 24.001,340.907 C19.732,324.359 19.409,307.727 22.94,291.013 C25.097,285.558 29.343,281.747 33.656,278.18 C48.275,266.092 64.098,255.892 81.725,248.678 C83.307,248.03 84.856,246.521 86.754,248.012" fill="#FEFEFE"/>
    <path d="M733.778,433.234 C733.674,451.878 725.666,461.392 706.468,465.677 C692.538,468.786 692.608,468.782 691.81,454.62 C690.79,436.512 689.725,418.405 688.477,400.311 C688.25,397.013 688.653,395.874 692.346,396.39 C699.626,397.408 706.761,398.717 713.499,401.795 C726.987,407.956 733.955,418.282 733.778,433.234" fill="#FEF8EA"/>
    <path d="M327.747,735.043 C343.599,736.088 359.019,737.044 374.482,737.03 C377.355,737.027 379.343,737.699 378.718,741.331 C375.892,757.745 372.26,773.907 364.535,788.852 C363.005,791.811 361.337,794.692 359.078,797.168 C355.109,801.52 352.967,801.569 348.921,797.172 C346.102,794.108 343.773,790.664 341.795,786.981 C333.483,771.508 328.332,754.849 323.447,738.094 C321.716,732.155 326.721,736.22 327.747,735.043" fill="#D0CF00"/>
    <path d="M74.828,431.781 C74.828,442.075 74.662,452.373 74.908,462.661 C75.009,466.886 73.338,467.792 69.657,466.955 C66.423,466.219 63.115,465.789 59.9,464.981 C43.659,460.9 37.011,453.434 35.126,437.321 C33.323,421.908 39.763,409.715 53.321,402.74 C59.452,399.585 66.008,397.956 72.765,396.855 C75.835,396.354 76.821,397.174 76.76,400.403 C76.564,410.86 76.687,421.322 76.687,431.782 C76.067,431.782 75.448,431.781 74.828,431.781" fill="#FEF8EA"/>
    <path d="M423.668,737.778 C429.808,737.548 437.473,738.064 445.09,737.042 C447.735,736.688 449.219,737.442 448.814,740.524 C446.485,758.209 443.479,775.717 434.937,791.696 C430.043,800.851 427.532,801.193 421.361,793.01 C409.698,777.544 403.29,759.886 400.359,740.831 C399.926,738.017 401.006,737.742 403.188,737.76 C409.514,737.81 415.84,737.778 423.668,737.778" fill="#D0CF00"/>
    <path d="M732.051,363.157 C720.07,375.062 705.293,377.513 689.299,375.736 C685.832,375.35 687.197,372.272 687.09,370.574 C686.159,355.836 685.45,341.084 684.806,326.33 C684.524,319.87 683.309,313.458 683.817,306.96 C685.701,306.348 686.997,307.614 688.298,308.523 C702.536,318.476 715.253,329.955 724.03,345.203 C727.306,350.895 729.444,357.142 732.051,363.157" fill="#FEFEFE"/>
    <path d="M732.051,363.157 C727.221,358.464 726.468,351.661 723.232,346.127 C713.548,329.57 699.507,317.447 683.818,306.96 C682.367,298.762 682.078,290.456 681.509,282.176 C690.527,285.471 697.81,291.586 705.398,297.131 C721.738,309.073 734.997,323.794 744.5,341.765 C741.969,349.838 738.438,357.329 732.051,363.157" fill="#BEBEBE"/>
    <path d="M80.081,316.111 C79.278,334.359 78.4,352.604 77.735,370.857 C77.597,374.643 76.498,376.193 72.405,376.261 C58.719,376.49 46.559,372.979 36.668,363.096 C41.288,351.341 46.555,339.918 55.174,330.472 C61.007,324.081 67.22,318.043 74.346,313.051 C75.938,311.935 77.626,309.886 79.582,311.047 C81.262,312.044 80.251,314.353 80.081,316.111" fill="#FEFEFE"/>
    <path d="M80.081,316.111 C79.921,314.642 79.761,313.172 79.562,311.346 C74.655,313.398 71.012,317.048 67.259,320.34 C55.797,330.391 46.038,341.792 41.055,356.555 C40.163,359.196 38.103,360.902 36.668,363.097 C30.02,357.084 26.541,349.263 24.001,340.906 C25.209,340.921 25.655,340.082 26.13,339.149 C36.61,318.561 53.181,303.741 71.878,290.955 C75.435,288.522 79.109,286.258 82.729,283.917 C81.846,294.648 80.964,305.379 80.081,316.111" fill="#BEBEBE"/>
    <path d="M745.814,290.96 C728.167,270.901 705.904,257.709 681.491,247.711 C679.739,246.994 677.712,245.422 677.554,249.12 C676.337,240.705 675.12,232.291 673.902,223.877 C684.255,225.477 693.448,230.274 702.77,234.598 C713.808,239.718 724.179,246.06 734.221,252.935 C734.985,253.458 736.067,255.735 736.884,252.889 C741.083,265.293 744.903,277.785 745.814,290.96" fill="#BEBEBE"/>
    <path d="M86.754,248.012 C63.077,257.897 41.005,270.163 24.138,290.167 C23.833,290.529 23.344,290.734 22.94,291.013 C23.297,280.617 26.628,270.83 29.166,260.885 C29.855,258.185 30.905,255.578 31.789,252.928 C33.335,256.084 34.642,252.902 35.323,252.438 C41.887,247.961 48.671,243.871 55.59,239.974 C65.702,234.278 76.301,229.694 87.186,225.721 C88.416,225.272 89.542,224.541 90.717,223.941 C89.396,231.965 88.075,239.988 86.754,248.012" fill="#BEBEBE"/>
    <path d="M567.916,918.051 C564.999,934.84 562.228,950.843 559.435,966.842 C558.265,973.547 557.062,980.245 555.849,986.942 C555.424,989.291 546.372,993.47 544.43,992.168 C543.439,991.504 543.831,990.361 544.011,989.404 C548.057,967.871 552.123,946.343 556.162,924.809 C556.587,922.54 557.354,920.904 560.038,920.465 C562.468,920.068 564.794,919.039 567.916,918.051" fill="#BEBEBE"/>
    <path d="M419.943,995.799 C419.868,1000.376 416.207,1002.57 410.965,1000.99 C392.18,995.342 373.414,989.634 354.641,983.946 C329.506,976.329 304.372,968.708 279.237,961.09 C277.803,960.655 276.356,960.262 274.937,959.785 C271.161,958.516 269.497,955.857 270.659,952.047 C271.863,948.095 274.968,947.232 278.645,948.326 C288.046,951.123 297.417,954.018 306.803,956.86 C342.282,967.606 377.761,978.349 413.243,989.084 C416.695,990.128 420.091,991.182 419.943,995.799" fill="#6E4100"/>
    <path d="M417.667,959.941 C412.97,958.558 407.707,957.045 402.466,955.458 C362.053,943.223 321.643,930.973 281.234,918.723 C280.44,918.482 279.659,918.192 278.879,917.907 C275.105,916.526 273.546,913.771 274.926,910.058 C276.19,906.656 278.916,905.423 282.593,906.537 C302.959,912.706 323.342,918.818 343.713,924.971 C368.06,932.325 392.402,939.695 416.74,947.081 C418.323,947.562 420.009,947.99 421.363,948.877 C423.791,950.467 424.893,952.763 423.902,955.76 C422.998,958.491 421.048,959.704 417.667,959.941" fill="#6E4100"/>
    <path d="M421.951,974.753 C421.992,979.426 418.418,981.692 413.216,980.138 C396.016,975.001 378.823,969.839 361.645,964.631 C334.605,956.433 307.578,948.19 280.546,939.965 C279.751,939.723 278.975,939.415 278.17,939.214 C274.06,938.182 271.54,935.928 272.665,931.368 C273.586,927.634 276.815,926.362 281.516,927.732 C288.378,929.732 295.216,931.812 302.057,933.882 C339.758,945.294 377.458,956.711 415.156,968.134 C418.549,969.162 422.109,970.058 421.951,974.753" fill="#6E4100"/>
    <path d="M536.669,932.541 C534.943,941.94 533.185,951.574 531.402,961.204 C528.532,976.713 525.648,992.219 522.763,1007.73 C522.52,1009.03 522.24,1010.33 521.954,1011.63 C521.093,1015.54 518.568,1017.49 514.718,1016.6 C510.893,1015.72 509.504,1012.85 510.233,1008.96 C513.289,992.641 516.321,976.321 519.36,960.002 C521.153,950.373 522.919,940.738 524.744,931.116 C525.442,927.435 527.817,925.53 531.49,926.014 C534.91,926.466 536.612,928.813 536.669,932.541" fill="#6E4100"/>
    <path d="M398.889,597.722 C445.162,597.839 488.925,607.858 529.426,630.771 C530.438,631.344 531.477,631.883 532.434,632.539 C536.944,635.633 538.226,640.705 535.664,645.172 C533.182,649.498 527.943,650.962 523.057,648.494 C518.459,646.171 514.024,643.524 509.416,641.221 C477.497,625.264 443.549,617.51 407.998,616.455 C351.862,614.788 298.954,628.372 247.879,650.538 C245.457,651.589 243.103,653.069 240.298,652.673 C235.883,652.052 232.815,649.613 232.013,645.196 C231.135,640.358 233.222,636.775 237.747,634.729 C251.38,628.566 265.306,623.15 279.491,618.399 C318.236,605.422 357.904,597.779 398.889,597.722" fill="#6E4100"/>
    <path d="M567.827,641.905 C567.827,645.736 567.899,649.568 567.809,653.397 C567.691,658.427 565.005,661.399 560.399,661.792 C556.526,662.123 552.451,658.641 551.903,654.246 C551.616,651.948 551.816,649.59 551.796,647.259 C551.414,603.574 546.219,560.555 532.525,518.929 C522.046,487.078 506.373,458.192 480.874,435.531 C478.272,433.219 475.525,431.062 472.763,428.94 C468.574,425.724 467.349,419.836 470.224,416.266 C472.737,413.145 478.378,413.003 482.383,415.919 C502.509,430.569 517.509,449.576 529.465,471.188 C546.733,502.401 555.869,536.254 561.725,571.129 C564.608,588.295 566.168,605.61 567.009,623.016 C567.313,629.308 567.746,635.599 567.827,641.905" fill="#F5CEA8"/>
    <path d="M200.807,642.418 C201.929,598.642 207.036,555.464 220.841,513.692 C229.722,486.82 242.111,461.671 260.593,440.014 C268.234,431.06 276.574,422.595 286.408,415.875 C291.09,412.676 296.333,413.071 298.932,416.647 C301.77,420.552 300.957,425.359 296.343,428.801 C269.424,448.882 252.586,476.089 240.696,506.872 C231.204,531.445 225.268,556.877 221.747,582.943 C219.726,597.9 218.395,612.881 217.584,627.961 C217.137,636.267 217.119,644.556 216.849,652.85 C216.677,658.125 213.459,661.804 208.86,661.824 C204.267,661.843 200.909,658.162 200.818,652.909 C200.758,649.413 200.807,645.915 200.807,642.418" fill="#F5CEA8"/>
    <path d="M384.96,457.014 C375.583,455.887 367.18,451.943 361.702,442.948 C359.077,438.638 357.418,433.95 356.309,429.074 C355.328,424.763 357.816,420.442 361.806,419.124 C366.12,417.7 370.735,419.781 372.485,424.083 C373.733,427.15 374.445,430.481 375.994,433.373 C380.155,441.145 387.306,441.425 392.262,434.243 C393.985,431.747 395,428.973 395.922,426.108 C397.595,420.909 401.802,418.612 406.783,419.972 C411.103,421.152 413.631,425.754 412.236,430.746 C408.951,442.508 402.82,451.971 390.583,456.159 C389.8,456.427 388.989,456.646 388.173,456.779 C387.357,456.912 386.518,456.908 384.96,457.014" fill="#6E4100"/>
    <path d="M260.374,241.185 C251.336,241.554 240.271,239.791 229.73,235.092 C225.758,233.32 222.052,231.117 218.618,228.465 C201.97,215.61 201.492,196.753 217.554,183.061 C229.512,172.868 243.767,168.242 259.114,166.615 C278.429,164.567 297.32,166.066 315.327,174.048 C321.158,176.633 326.492,179.982 330.897,184.653 C341.564,195.964 340.696,212.603 328.957,222.791 C322.284,228.581 314.387,232.063 306.062,234.53 C291.965,238.707 277.568,241.175 260.374,241.185" fill="#6E4100"/>
    <path d="M506.09,241.125 C487.491,240.687 469.338,237.947 452.119,230.518 C447.512,228.53 443.237,225.945 439.545,222.514 C427.02,210.876 427.313,193.53 440.292,182.343 C450.186,173.815 462.118,169.758 474.71,167.636 C494.192,164.353 513.488,164.92 532.226,171.942 C540.41,175.009 547.785,179.414 553.961,185.715 C566.62,198.627 565.836,215.536 551.807,227.119 C540.168,236.729 526.451,240.647 511.586,241.117 C509.756,241.175 507.922,241.125 506.09,241.125" fill="#6E4100"/>
    <path d="M322.585,93.933 C319.524,93.674 316.257,94.823 313.499,92.396 C311.108,90.292 309.336,87.844 310.201,84.62 C311.142,81.115 313.003,78.232 317.269,77.955 C331.992,76.996 346.716,76.036 361.43,74.95 C377.788,73.744 394.118,71.89 410.496,71.273 C423.775,70.773 437.049,69.383 450.362,70.053 C454.651,70.269 458.446,73.999 458.744,77.93 C459.041,81.848 456.282,84.965 451.708,86.231 C449.74,86.776 447.795,86.963 445.795,86.901 C426.66,86.31 407.595,87.925 388.544,89.151 C369.855,90.353 351.209,92.237 332.487,93.081 C329.194,93.229 325.951,94.298 322.585,93.933" fill="#F5CEA8"/>
    <path d="M387.204,122.996 C402.031,123.747 414.949,124.266 427.845,125.115 C433.881,125.513 437.417,129.676 436.805,134.818 C436.215,139.777 432.131,142.607 426.051,141.847 C408.698,139.679 391.26,139.486 373.851,140.146 C364.135,140.515 354.468,142.279 344.793,143.519 C341.663,143.921 338.438,144.873 335.6,143.031 C332.572,141.067 331.243,137.992 331.957,134.371 C332.634,130.942 334.859,128.688 338.285,128.108 C349.704,126.177 361.113,123.932 372.752,124.038 C378.254,124.087 383.654,123.134 387.204,122.996" fill="#F5CEA8"/>
    <path d="M356.09,192.86 C349.487,193.031 346.085,190.533 345.831,185.433 C345.579,180.388 348.359,177.735 354.678,176.907 C359.274,176.304 363.859,175.627 368.45,174.997 C382.554,173.063 396.66,171.149 410.761,169.195 C414.965,168.613 418.921,169.17 421.563,172.731 C425.426,177.938 421.691,185.539 414.763,185.77 C396.288,186.385 378.333,190.69 360.084,192.84 C358.77,192.994 357.422,192.86 356.09,192.86" fill="#F5CEA8"/>
    <path d="M286.829,370.033 C271.678,370.033 256.528,370.068 241.378,370.02 C232.155,369.991 226.785,364.646 226.756,355.511 C226.716,342.692 226.706,329.872 226.76,317.053 C226.797,308.474 232.203,302.903 240.709,302.886 C271.508,302.824 302.309,302.824 333.108,302.887 C341.376,302.904 346.906,308.374 346.985,316.634 C347.11,329.785 347.104,342.939 346.991,356.09 C346.918,364.609 341.388,369.978 332.779,370.014 C317.462,370.079 302.145,370.032 286.829,370.033" fill="#FEFEFE"/>
    <path d="M481.84,370.033 C466.69,370.033 451.539,370.067 436.389,370.021 C427.14,369.992 421.762,364.671 421.732,355.552 C421.69,342.733 421.682,329.913 421.735,317.094 C421.772,308.299 427.216,302.89 436.137,302.877 C466.604,302.834 497.07,302.835 527.537,302.876 C536.433,302.888 541.91,308.262 541.974,317.091 C542.069,330.077 542.079,343.064 541.969,356.049 C541.896,364.572 536.368,369.976 527.79,370.014 C512.473,370.08 497.156,370.032 481.84,370.033" fill="#FEFEFE"/>
    <path d="M275.653,182.997 C286.737,183.571 297.483,185.347 307.662,189.903 C311.48,191.612 315.149,193.576 318.014,196.689 C321.978,200.996 321.83,205.388 317.52,209.339 C315.945,210.783 314.162,212.171 312.227,213.022 C290.907,222.393 268.792,226.262 245.651,221.964 C239.022,220.733 233.077,217.748 227.934,213.321 C222.287,208.46 221.9,203.746 227.072,198.408 C236.115,189.076 247.909,185.779 260.263,184.088 C265.348,183.392 270.52,183.341 275.653,182.997" fill="#FEFEFE"/>
    <path d="M494.937,183.199 C508.899,183.701 519.557,185.139 529.518,189.867 C534.366,192.168 538.875,194.98 542.388,199.097 C546.45,203.857 546.326,207.834 541.86,212.238 C534.239,219.752 524.574,222.741 514.278,223.399 C494.94,224.634 476.166,221.755 458.349,213.901 C453.479,211.754 448.142,209.117 448.067,202.895 C447.993,196.714 453.273,193.972 457.967,191.46 C470.482,184.761 484.15,183.364 494.937,183.199" fill="#FEFEFE"/>
    <path d="M322.992,342.77 C322.909,356.017 315.288,363.622 302.258,363.46 C290.402,363.313 282.747,355.001 282.829,342.363 C282.913,329.517 292.53,319.878 305.193,319.949 C315.602,320.007 323.075,329.589 322.992,342.77" fill="#6E4100"/>
    <path d="M485.969,342.367 C486.006,355.63 478.426,363.469 465.572,363.461 C453.544,363.454 445.816,355.347 445.809,342.732 C445.802,329.567 454.998,320.014 467.74,319.949 C478.292,319.894 485.932,329.291 485.969,342.367" fill="#6E4100"/>
  </g>
</svg>
